<svg xmlns="http://www.w3.org/2000/svg" viewBox="0 0 80 80" width="160px" height="160px"><path fill="#7496c4" d="M76 7H78V76H76z"/><path fill="#7496c4" d="M64 75H78V77H64zM64 39H78V41H64z"/><path fill="#c74343" d="M64 3H78V5H64z"/><path fill="#7496c4" d="M70 66H78V68H70zM70 57H78V59H70zM70 48H78V50H70z"/><path fill="#c74343" d="M70 21H78V23H70zM70 30H78V32H70z"/><path fill="#c74343" d="M76 4H78V32H76z"/><path fill="#c74343" d="M70 12H78V14H70z"/><path fill="#c2e8ff" d="M29,77.5c-14.612,0-26.5-11.952-26.5-26.643c0-15.698,23.21-44.129,26.498-48.076 C32.273,6.766,55.5,35.569,55.5,50.857C55.5,65.548,43.612,77.5,29,77.5z"/><path fill="#7496c4" d="M28.995,3.567C33.361,8.926,55,36.23,55,50.857C55,65.272,43.336,77,29,77S3,65.272,3,50.857 C3,35.84,24.616,8.875,28.995,3.567 M29,2C29,2,2,33.667,2,50.857C2,65.848,14.088,78,29,78s27-12.152,27-27.143 C56,34.119,29,2,29,2L29,2z"/><g><path fill="#8bb7f0" d="M29,77.5c-14.612,0-26.5-11.952-26.5-26.643c0-4.1,1.602-9.444,4.76-15.885 c2.402-1.083,6.063-2.472,10.597-2.472c3.816,0,7.157,1.903,10.694,3.919c3.521,2.006,7.163,4.081,11.306,4.081 c3.878,0,7.756-1.337,11.536-3.977C54.119,42.33,55.5,47.151,55.5,50.857C55.5,65.548,43.612,77.5,29,77.5z"/><path fill="#4e7ab5" d="M17.857,33c3.683,0,6.968,1.872,10.446,3.853C31.882,38.892,35.582,41,39.857,41 c3.814,0,7.621-1.255,11.331-3.732C53.718,42.77,55,47.338,55,50.857C55,65.272,43.336,77,29,77S3,65.272,3,50.857 c0-3.99,1.558-9.204,4.63-15.503C10.154,34.227,13.554,33,17.857,33 M17.857,32c-4.653,0-8.352,1.399-10.966,2.591 C3.995,40.464,2,46.194,2,50.857C2,65.848,14.088,78,29,78c14.912,0,27-12.152,27-27.143c0-4.286-1.776-9.583-4.411-15.089 C49.031,37.636,44.979,40,39.857,40C31.857,40,25.774,32,17.857,32L17.857,32z"/></g></svg>