<svg xmlns="http://www.w3.org/2000/svg" viewBox="0 0 40 40" width="120px" height="120px"><path fill="#dff0fe" d="M20,22.214c-2.481,0-4.5-2.019-4.5-4.5V6c0-2.481,2.019-4.5,4.5-4.5s4.5,2.019,4.5,4.5v11.714 C24.5,20.196,22.481,22.214,20,22.214z"/><path fill="#4788c7" d="M20,2c2.206,0,4,1.794,4,4v11.714c0,2.206-1.794,4-4,4s-4-1.794-4-4V6C16,3.794,17.794,2,20,2 M20,1c-2.75,0-5,2.25-5,5v11.714c0,2.75,2.25,5,5,5s5-2.25,5-5V6C25,3.25,22.75,1,20,1L20,1z"/><path fill="#98ccfd" d="M20,38.5c-4.136,0-7.5-3.364-7.5-7.5c0-2.283,1.025-4.415,2.813-5.85L15.5,25v-9.5h9V25l0.187,0.15 C26.475,26.585,27.5,28.717,27.5,31C27.5,35.136,24.136,38.5,20,38.5z"/><path fill="#4788c7" d="M24,16v8.76v0.48l0.374,0.3C26.043,26.879,27,28.869,27,31c0,3.86-3.14,7-7,7s-7-3.14-7-7 c0-2.131,0.957-4.121,2.626-5.46L16,25.24v-0.48V16H24 M25,15H15v9.76c-1.827,1.466-3,3.714-3,6.24c0,4.418,3.582,8,8,8 s8-3.582,8-8c0-2.525-1.173-4.773-3-6.24V15L25,15z"/><path fill="#4788c7" d="M20.5 19H25v1h-4.5c-.276 0-.5-.224-.5-.5v0C20 19.224 20.224 19 20.5 19zM20.5 23H25v1h-4.5c-.276 0-.5-.224-.5-.5v0C20 23.224 20.224 23 20.5 23zM20.5 11H25v1h-4.5c-.276 0-.5-.224-.5-.5v0C20 11.224 20.224 11 20.5 11zM20.5 7H25v1h-4.5C20.224 8 20 7.776 20 7.5v0C20 7.224 20.224 7 20.5 7z"/></svg>