<svg xmlns="http://www.w3.org/2000/svg" viewBox="0 0 80 80" width="160px" height="160px"><path fill="#e1ebf2" d="M66.5 5.5H77.5V74.5H66.5z"/><path fill="#a3b7cc" d="M77,6v68H67V6H77 M78,5H66v70h12V5L78,5z"/><path fill="#e1ebf2" d="M50.5 21.5H61.5V74.5H50.5z"/><path fill="#a3b7cc" d="M61,22v52H51V22H61 M62,21H50v54h12V21L62,21z"/><path fill="#bae0bd" d="M34.5 35.5H45.5V74.5H34.5z"/><path fill="#5e9c76" d="M45,36v38H35V36H45 M46,35H34v40h12V35L46,35z"/><g><path fill="#bae0bd" d="M18.5 49.5H29.5V74.5H18.5z"/><path fill="#5e9c76" d="M29,50v24H19V50H29 M30,49H18v26h12V49L30,49z"/></g><g><path fill="#bae0bd" d="M2.5 59.5H13.5V74.5H2.5z"/><path fill="#5e9c76" d="M13,60v14H3V60H13 M14,59H2v16h12V59L14,59z"/></g></svg>