<?xml version="1.0" encoding="UTF-8"?>
<svg xmlns="http://www.w3.org/2000/svg" xmlns:xlink="http://www.w3.org/1999/xlink" width="80pt" height="80pt" viewBox="0 0 80 80" version="1.1">
<g id="surface419448">
<path style=" stroke:none;fill-rule:nonzero;fill:rgb(54.509804%,71.764706%,94.117647%);fill-opacity:1;" d="M 72.34375 17.785156 C 68.941406 17.785156 67.789062 15.429688 66.859375 13.53125 L 66.648438 13.101562 C 64.957031 9.726562 62.371094 6.664062 61.066406 5.226562 C 65.695312 5.3125 71.503906 5.949219 75.113281 8.28125 C 76.617188 9.253906 77.5 10.871094 77.5 12.632812 C 77.5 15.476562 75.1875 17.785156 72.34375 17.785156 Z M 72.34375 17.785156 "/>
<path style=" stroke:none;fill-rule:nonzero;fill:rgb(30.588235%,47.843137%,70.980392%);fill-opacity:1;" d="M 62.203125 5.757812 C 66.539062 5.921875 71.617188 6.617188 74.863281 8.71875 C 76.203125 9.578125 77 11.042969 77 12.632812 C 77 15.199219 74.910156 17.285156 72.34375 17.285156 C 69.253906 17.285156 68.222656 15.175781 67.308594 13.3125 L 67.097656 12.878906 C 65.667969 10.027344 63.613281 7.402344 62.203125 5.757812 M 59.902344 4.714844 C 59.902344 4.714844 63.917969 8.773438 66.203125 13.324219 C 67.15625 15.230469 68.34375 18.285156 72.34375 18.285156 C 75.46875 18.285156 78 15.753906 78 12.632812 C 78 10.636719 76.96875 8.882812 75.40625 7.878906 C 74.523438 7.308594 70.617188 4.714844 59.902344 4.714844 Z M 59.902344 4.714844 "/>
<path style=" stroke:none;fill-rule:nonzero;fill:rgb(76.078431%,90.980392%,100%);fill-opacity:1;" d="M 2.5 77.5 L 2.5 70.5 L 67 70.5 C 68.929688 70.5 70.5 68.929688 70.5 67 C 70.5 65.070312 68.929688 63.5 67 63.5 L 13 63.5 C 7.210938 63.5 2.5 58.789062 2.5 53 C 2.5 47.210938 7.210938 42.5 13 42.5 L 67 42.5 C 68.929688 42.5 70.5 40.929688 70.5 39 C 70.5 37.070312 68.929688 35.5 67 35.5 L 12.808594 35.5 C 7.125 35.5 2.5 30.875 2.5 25.191406 C 2.5 20.5625 5.617188 16.476562 10.082031 15.253906 L 34.144531 8.644531 L 36 15.398438 L 11.933594 22.003906 C 10.5 22.394531 9.5 23.707031 9.5 25.191406 C 9.5 27.015625 10.984375 28.5 12.808594 28.5 L 67 28.5 C 72.789062 28.5 77.5 33.210938 77.5 39 C 77.5 44.789062 72.789062 49.5 67 49.5 L 13 49.5 C 11.070312 49.5 9.5 51.070312 9.5 53 C 9.5 54.929688 11.070312 56.5 13 56.5 L 67 56.5 C 72.789062 56.5 77.5 61.210938 77.5 67 C 77.5 72.789062 72.789062 77.5 67 77.5 Z M 2.5 77.5 "/>
<path style=" stroke:none;fill-rule:nonzero;fill:rgb(45.490196%,58.823529%,76.862745%);fill-opacity:1;" d="M 33.796875 9.261719 L 35.382812 15.046875 L 11.800781 21.519531 C 10.152344 21.972656 9 23.480469 9 25.191406 C 9 27.289062 10.710938 29 12.808594 29 L 67 29 C 72.515625 29 77 33.484375 77 39 C 77 44.515625 72.515625 49 67 49 L 13 49 C 10.792969 49 9 50.792969 9 53 C 9 55.207031 10.792969 57 13 57 L 67 57 C 72.515625 57 77 61.484375 77 67 C 77 72.515625 72.515625 77 67 77 L 3 77 L 3 71 L 67 71 C 69.207031 71 71 69.207031 71 67 C 71 64.792969 69.207031 63 67 63 L 13 63 C 7.484375 63 3 58.515625 3 53 C 3 47.484375 7.484375 43 13 43 L 67 43 C 69.207031 43 71 41.207031 71 39 C 71 36.792969 69.207031 35 67 35 L 12.808594 35 C 7.398438 35 3 30.601562 3 25.191406 C 3 20.785156 5.964844 16.898438 10.214844 15.734375 L 33.796875 9.261719 M 34.496094 8.03125 L 9.949219 14.769531 C 5.269531 16.054688 2 20.339844 2 25.191406 C 2 31.148438 6.851562 36 12.808594 36 L 67 36 C 68.652344 36 70 37.347656 70 39 C 70 40.652344 68.652344 42 67 42 L 13 42 C 6.9375 42 2 46.9375 2 53 C 2 59.0625 6.9375 64 13 64 L 67 64 C 68.652344 64 70 65.347656 70 67 C 70 68.652344 68.652344 70 67 70 L 2 70 L 2 78 L 67 78 C 73.0625 78 78 73.0625 78 67 C 78 60.9375 73.0625 56 67 56 L 13 56 C 11.347656 56 10 54.652344 10 53 C 10 51.347656 11.347656 50 13 50 L 67 50 C 73.0625 50 78 45.0625 78 39 C 78 32.9375 73.0625 28 67 28 L 12.808594 28 C 11.261719 28 10 26.738281 10 25.191406 C 10 23.929688 10.847656 22.816406 12.0625 22.484375 L 36.613281 15.746094 Z M 34.496094 8.03125 "/>
<path style=" stroke:none;fill-rule:nonzero;fill:rgb(100%,89.019608%,92.941176%);fill-opacity:1;" d="M 31.046875 7.042969 L 51.742188 5.445312 L 52.992188 11.234375 L 33.660156 19.148438 Z M 31.046875 7.042969 "/>
<path style=" stroke:none;fill-rule:nonzero;fill:rgb(54.509804%,45.882353%,63.137255%);fill-opacity:1;" d="M 51.347656 5.976562 L 52.417969 10.929688 L 34.023438 18.460938 L 31.65625 7.496094 L 51.347656 5.976562 M 52.140625 4.914062 L 30.4375 6.589844 L 33.300781 19.835938 L 53.570312 11.539062 Z M 52.140625 4.914062 "/>
<path style=" stroke:none;fill-rule:nonzero;fill:rgb(100%,89.019608%,92.941176%);fill-opacity:1;" d="M 36.621094 21.566406 C 34.84375 21.566406 33.277344 20.304688 32.902344 18.5625 L 30.429688 7.113281 C 30.214844 6.117188 30.398438 5.101562 30.953125 4.242188 C 31.503906 3.390625 32.355469 2.800781 33.347656 2.585938 C 33.613281 2.527344 33.886719 2.5 34.15625 2.5 C 35.933594 2.5 37.5 3.765625 37.875 5.503906 L 40.347656 16.953125 C 40.5625 17.949219 40.375 18.96875 39.824219 19.824219 C 39.273438 20.679688 38.421875 21.265625 37.429688 21.480469 C 37.160156 21.539062 36.890625 21.566406 36.621094 21.566406 Z M 36.621094 21.566406 "/>
<path style=" stroke:none;fill-rule:nonzero;fill:rgb(54.509804%,45.882353%,63.137255%);fill-opacity:1;" d="M 34.15625 3 C 35.699219 3 37.058594 4.097656 37.386719 5.609375 L 39.859375 17.0625 C 40.046875 17.925781 39.882812 18.808594 39.40625 19.554688 C 38.925781 20.296875 38.1875 20.808594 37.320312 20.992188 C 37.089844 21.042969 36.855469 21.070312 36.621094 21.070312 C 35.078125 21.070312 33.71875 19.972656 33.390625 18.457031 L 30.917969 7.007812 C 30.730469 6.144531 30.894531 5.257812 31.371094 4.515625 C 31.851562 3.773438 32.59375 3.261719 33.457031 3.074219 C 33.6875 3.023438 33.921875 3 34.15625 3 M 34.15625 2 C 33.855469 2 33.550781 2.03125 33.242188 2.097656 C 30.917969 2.597656 29.4375 4.890625 29.941406 7.21875 L 32.414062 18.667969 C 32.847656 20.6875 34.632812 22.070312 36.621094 22.070312 C 36.921875 22.070312 37.226562 22.035156 37.53125 21.972656 C 39.859375 21.46875 41.339844 19.175781 40.835938 16.851562 L 38.363281 5.398438 C 37.925781 3.378906 36.140625 2 34.15625 2 Z M 34.15625 2 "/>
<path style=" stroke:none;fill-rule:nonzero;fill:rgb(76.078431%,90.980392%,100%);fill-opacity:1;" d="M 2 71 L 6 71 L 6 77 L 2 77 Z M 2 71 "/>
</g>
</svg>
