<svg xmlns="http://www.w3.org/2000/svg" viewBox="0 0 80 80" width="160px" height="160px"><path fill="#8bb7f0" d="M33,64.5C15.631,64.5,1.5,50.369,1.5,33S15.631,1.5,33,1.5S64.5,15.631,64.5,33S50.369,64.5,33,64.5 z"/><path fill="#4e7ab5" d="M33,2c17.093,0,31,13.907,31,31S50.093,64,33,64S2,50.093,2,33S15.907,2,33,2 M33,1 C15.327,1,1,15.327,1,33s14.327,32,32,32s32-14.327,32-32S50.673,1,33,1L33,1z"/><path fill="#fff" d="M33,57.5C19.491,57.5,8.5,46.509,8.5,33S19.491,8.5,33,8.5S57.5,19.491,57.5,33S46.509,57.5,33,57.5 z"/><path fill="#4e7ab5" d="M33,9c13.255,0,24,10.745,24,24S46.255,57,33,57S9,46.255,9,33S19.745,9,33,9 M33,8 C19.215,8,8,19.215,8,33s11.215,25,25,25s25-11.215,25-25S46.785,8,33,8L33,8z"/><path fill="#c2e8ff" d="M64.5,78.5c-7.72,0-14-6.464-14-14.409c0-8.37,11.722-22.63,13.997-25.318 C66.766,41.491,78.5,55.945,78.5,64.091C78.5,72.036,72.22,78.5,64.5,78.5z"/><path fill="#7496c4" d="M64.495,39.553C67.438,43.128,78,56.49,78,64.091C78,71.76,71.944,78,64.5,78S51,71.76,51,64.091 C51,56.281,61.544,43.09,64.495,39.553 M64.5,38c0,0-14.5,16.571-14.5,26.091C50,72.325,56.492,79,64.5,79S79,72.325,79,64.091 C79,54.827,64.5,38,64.5,38L64.5,38z"/><path fill="#b6c9d6" d="M19.59,43.41C17.349,40.53,16,36.923,16,33c0-9.374,7.626-17,17-17s17,7.626,17,17	c0,3.923-1.349,7.53-3.59,10.41l1.433,1.433C50.439,41.594,52,37.482,52,33c0-10.493-8.507-19-19-19s-19,8.507-19,19	c0,4.482,1.561,8.594,4.157,11.843L19.59,43.41z"/><path fill="#36404d" d="M24.092 16.931L24.503 15.238 26.076 15.981 38.305 41.548 36.32 42.497z"/><g><path fill="#8bb7f0" d="M33 29.5A3.5 3.5 0 1 0 33 36.5A3.5 3.5 0 1 0 33 29.5Z"/><path fill="#4e7ab5" d="M33,30c1.654,0,3,1.346,3,3s-1.346,3-3,3s-3-1.346-3-3S31.346,30,33,30 M33,29 c-2.209,0-4,1.791-4,4s1.791,4,4,4s4-1.791,4-4S35.209,29,33,29L33,29z"/></g></svg>