<?xml version="1.0" encoding="UTF-8"?>
<svg xmlns="http://www.w3.org/2000/svg" xmlns:xlink="http://www.w3.org/1999/xlink" width="160pt" height="160pt" viewBox="0 0 160 160" version="1.1">
<g id="surface391554">
<path style=" stroke:none;fill-rule:nonzero;fill:rgb(72.941176%,60.784314%,28.235294%);fill-opacity:1;" d="M 142.398438 53 L 137 53 C 136.398438 53 136 52.601562 136 52 C 136 51.398438 136.398438 51 137 51 L 142.398438 51 C 143 51 143.398438 51.398438 143.398438 52 C 143.398438 52.601562 143 53 142.398438 53 Z M 23 53 L 17.601562 53 C 17 53 16.601562 52.601562 16.601562 52 C 16.601562 51.398438 17 51 17.601562 51 L 23 51 C 23.601562 51 24 51.398438 24 52 C 24 52.601562 23.601562 53 23 53 Z M 23 53 "/>
<path style=" stroke:none;fill-rule:nonzero;fill:rgb(72.941176%,60.784314%,28.235294%);fill-opacity:1;" d="M 142.398438 53 L 137 53 C 136.398438 53 136 52.601562 136 52 C 136 51.398438 136.398438 51 137 51 L 142.398438 51 C 143 51 143.398438 51.398438 143.398438 52 C 143.398438 52.601562 143 53 142.398438 53 Z M 23 53 L 17.601562 53 C 17 53 16.601562 52.601562 16.601562 52 C 16.601562 51.398438 17 51 17.601562 51 L 23 51 C 23.601562 51 24 51.398438 24 52 C 24 52.601562 23.601562 53 23 53 Z M 23 53 "/>
<path style=" stroke:none;fill-rule:nonzero;fill:rgb(72.941176%,60.784314%,28.235294%);fill-opacity:1;" d="M 142.398438 53 L 137 53 C 136.398438 53 136 52.601562 136 52 C 136 51.398438 136.398438 51 137 51 L 142.398438 51 C 143 51 143.398438 51.398438 143.398438 52 C 143.398438 52.601562 143 53 142.398438 53 Z M 23 53 L 17.601562 53 C 17 53 16.601562 52.601562 16.601562 52 C 16.601562 51.398438 17 51 17.601562 51 L 23 51 C 23.601562 51 24 51.398438 24 52 C 24 52.601562 23.601562 53 23 53 Z M 124.199219 97.199219 C 124 97.199219 123.601562 97.199219 123.398438 97 L 119.601562 93.199219 C 119.199219 92.800781 119.199219 92.199219 119.601562 91.800781 C 120 91.398438 120.601562 91.398438 121 91.800781 L 124.800781 95.601562 C 125.199219 96 125.199219 96.601562 124.800781 97 C 124.601562 97 124.398438 97.199219 124.199219 97.199219 Z M 39.601562 12.601562 C 39.398438 12.601562 39 12.601562 38.800781 12.398438 L 35 8.601562 C 34.601562 8.199219 34.601562 7.601562 35 7.199219 C 35.398438 6.800781 36 6.800781 36.398438 7.199219 L 40.199219 11 C 40.601562 11.398438 40.601562 12 40.199219 12.398438 C 40.199219 12.601562 40 12.601562 39.601562 12.601562 Z M 120.398438 12.601562 C 120.199219 12.601562 119.800781 12.601562 119.601562 12.398438 C 119.199219 12 119.199219 11.398438 119.601562 11 L 123.398438 7.199219 C 123.800781 6.800781 124.398438 6.800781 124.800781 7.199219 C 125.199219 7.601562 125.199219 8.199219 124.800781 8.601562 L 121 12.398438 C 120.800781 12.601562 120.601562 12.601562 120.398438 12.601562 Z M 35.800781 97.199219 C 35.601562 97.199219 35.199219 97.199219 35 97 C 34.601562 96.601562 34.601562 96 35 95.601562 L 38.800781 91.800781 C 39.199219 91.398438 39.800781 91.398438 40.199219 91.800781 C 40.601562 92.199219 40.601562 92.800781 40.199219 93.199219 L 36.398438 97 C 36.398438 97 36.199219 97.199219 35.800781 97.199219 Z M 132.601562 31.199219 C 132.199219 31.199219 131.800781 31 131.601562 30.601562 C 131.398438 30 131.601562 29.601562 132.199219 29.199219 L 137.199219 27.199219 C 137.800781 27 138.199219 27.199219 138.601562 27.800781 C 138.800781 28.398438 138.601562 28.800781 138 29.199219 L 133 31.199219 C 133 31.199219 132.800781 31.199219 132.601562 31.199219 Z M 22.398438 76.800781 C 22 76.800781 21.601562 76.601562 21.398438 76.199219 C 21.199219 75.601562 21.398438 75.199219 22 74.800781 L 27 72.800781 C 27.601562 72.601562 28 72.800781 28.398438 73.398438 C 28.601562 74 28.398438 74.398438 27.800781 74.800781 L 22.800781 76.800781 C 22.601562 76.800781 22.398438 76.800781 22.398438 76.800781 Z M 137.601562 76.800781 C 137.398438 76.800781 137.398438 76.800781 137.199219 76.800781 L 132.199219 74.800781 C 131.601562 74.601562 131.398438 74 131.601562 73.398438 C 131.800781 72.800781 132.398438 72.601562 133 72.800781 L 138 74.800781 C 138.601562 75 138.800781 75.601562 138.601562 76.199219 C 138.398438 76.601562 138 76.800781 137.601562 76.800781 Z M 27.398438 31.199219 C 27.199219 31.199219 27.199219 31.199219 27 31.199219 L 22 29.199219 C 21.398438 29 21.199219 28.398438 21.398438 27.800781 C 21.601562 27.199219 22.199219 27 22.800781 27.199219 L 27.800781 29.199219 C 28.398438 29.398438 28.601562 30 28.398438 30.601562 C 28.199219 31 27.800781 31.199219 27.398438 31.199219 Z M 27.398438 31.199219 "/>
<path style=" stroke:none;fill-rule:nonzero;fill:rgb(100%,93.333333%,63.921569%);fill-opacity:1;" d="M 57 120.398438 L 57 112 C 57 104.601562 52.398438 97.398438 47 89 C 40.398438 78.601562 33 66.800781 33 52 C 33 26 54 5 80 5 C 106 5 127 26 127 52 C 127 66.800781 119.601562 78.601562 113 89 C 107.601562 97.398438 103 104.601562 103 112 L 103 120.398438 Z M 57 120.398438 "/>
<path style=" stroke:none;fill-rule:nonzero;fill:rgb(72.941176%,60.784314%,28.235294%);fill-opacity:1;" d="M 80 6 C 105.398438 6 126 26.601562 126 52 C 126 66.398438 118.601562 78 112 88.398438 C 106.601562 97 102 104.398438 102 112 L 102 119.398438 L 58 119.398438 L 58 112 C 58 104.398438 53.398438 97 48 88.398438 C 41.398438 78 34 66.398438 34 52 C 34 26.601562 54.601562 6 80 6 M 80 4 C 53.398438 4 32 25.398438 32 52 C 32 78.601562 56 95.800781 56 112 L 56 121.398438 L 104 121.398438 L 104 112 C 104 95.800781 128 78.601562 128 52 C 128 25.398438 106.601562 4 80 4 Z M 80 4 "/>
<path style=" stroke:none;fill-rule:nonzero;fill:rgb(100%,100%,100%);fill-opacity:1;" d="M 90.800781 45.398438 C 92.800781 45.398438 94.601562 46.199219 96.199219 47.601562 C 99.199219 50.601562 99.199219 55.199219 96.199219 58.199219 L 88 66.398438 L 88 116 L 72 116 L 72 66.398438 L 63.800781 58.199219 C 60.800781 55.199219 60.800781 50.601562 63.800781 47.601562 C 65.199219 46.199219 67.199219 45.398438 69.199219 45.398438 C 71.199219 45.398438 73 46.199219 74.601562 47.601562 L 80.199219 53.199219 L 83 50.398438 L 85.800781 47.601562 C 87 46.199219 88.800781 45.398438 90.800781 45.398438 M 90.800781 41.398438 C 87.800781 41.398438 85 42.601562 82.601562 44.800781 L 80 47.398438 L 77.199219 44.601562 C 75 42.398438 72 41.199219 69 41.199219 C 66 41.199219 63.199219 42.398438 60.800781 44.601562 C 56.398438 49 56.398438 56.398438 60.800781 60.800781 L 68 68 L 68 120 L 92 120 L 92 68 L 99 61 C 103.398438 56.601562 103.398438 49.199219 99 44.800781 C 96.800781 42.398438 93.800781 41.398438 90.800781 41.398438 Z M 90.800781 41.398438 "/>
<path style=" stroke:none;fill-rule:nonzero;fill:rgb(17.647059%,20.784314%,25.098039%);fill-opacity:1;" d="M 80 128 C 72.269531 128 66 134.269531 66 142 C 66 149.730469 72.269531 156 80 156 C 87.730469 156 94 149.730469 94 142 C 94 134.269531 87.730469 128 80 128 Z M 80 128 "/>
<path style=" stroke:none;fill-rule:nonzero;fill:rgb(100%,89.019608%,92.941176%);fill-opacity:1;" d="M 68 147 C 62 147 57 142 57 136 L 57 113 L 103 113 L 103 136 C 103 142 98 147 92 147 Z M 68 147 "/>
<path style=" stroke:none;fill-rule:nonzero;fill:rgb(54.509804%,45.882353%,63.137255%);fill-opacity:1;" d="M 102 114 L 102 136 C 102 141.601562 97.601562 146 92 146 L 68 146 C 62.398438 146 58 141.601562 58 136 L 58 114 L 102 114 M 104 112 L 56 112 L 56 136 C 56 142.601562 61.398438 148 68 148 L 92 148 C 98.601562 148 104 142.601562 104 136 Z M 104 112 "/>
<path style=" stroke:none;fill-rule:nonzero;fill:rgb(54.509804%,45.882353%,63.137255%);fill-opacity:1;" d="M 72 120 L 104 120 L 104 122 L 72 122 Z M 56 120 L 68 120 L 68 122 L 56 122 Z M 72 126 L 104 126 L 104 128 L 72 128 Z M 56 126 L 68 126 L 68 128 L 56 128 Z M 72 132 L 104 132 L 104 134 L 72 134 Z M 56 132 L 68 132 L 68 134 L 56 134 Z M 72 138 L 102.398438 138 L 102.398438 140 L 72 140 Z M 57.601562 138 L 68 138 L 68 140 L 57.601562 140 Z M 57.601562 138 "/>
</g>
</svg>
