<?xml version="1.0" encoding="UTF-8"?>
<svg xmlns="http://www.w3.org/2000/svg" xmlns:xlink="http://www.w3.org/1999/xlink" width="128pt" height="128pt" viewBox="0 0 128 128" version="1.1">
<g id="surface402845">
<path style=" stroke:none;fill-rule:nonzero;fill:rgb(65.098039%,44.313725%,30.588235%);fill-opacity:1;" d="M 126.101562 76.800781 C 125.5 76.199219 124.800781 75.898438 124 75.898438 L 89 75.898438 C 85.199219 75.898438 81.398438 74.601562 78.5 72.101562 L 78.300781 72 C 74.300781 68.699219 69.199219 66.898438 64 66.898438 C 58.800781 66.898438 53.699219 68.699219 49.699219 72 L 49.601562 72.101562 C 46.601562 74.5 42.898438 75.898438 39.101562 75.898438 L 4.101562 75.898438 C 2.398438 75.898438 1.101562 77.199219 1.101562 78.898438 L 1.101562 124 C 1.101562 125.699219 2.398438 127 4.101562 127 L 124.101562 127 C 125.800781 127 127.101562 125.699219 127.101562 124 L 127.101562 78.898438 C 127 78.101562 126.699219 77.300781 126.101562 76.800781 Z M 126.101562 76.800781 "/>
<path style=" stroke:none;fill-rule:nonzero;fill:rgb(100%,100%,100%);fill-opacity:1;" d="M 58.398438 108.398438 C 57.601562 108.398438 56.898438 108.101562 56.300781 107.5 C 55.101562 106.300781 55.101562 104.398438 56.300781 103.300781 L 60.199219 99.398438 C 59.699219 96.300781 59.199219 89.199219 60.898438 77.398438 C 61.101562 75.800781 62.699219 74.601562 64.300781 74.898438 C 65.898438 75.101562 67.101562 76.699219 66.800781 78.300781 C 64.699219 92.898438 66.300781 99.601562 66.300781 99.601562 C 66.601562 100.601562 66.300781 101.699219 65.5 102.5 L 60.5 107.5 C 59.898438 108.199219 59.101562 108.398438 58.398438 108.398438 Z M 58.398438 108.398438 "/>
<path style=" stroke:none;fill-rule:nonzero;fill:rgb(100%,100%,100%);fill-opacity:1;" d="M 73.398438 113.398438 C 72.601562 113.398438 71.898438 113.101562 71.300781 112.5 L 61.300781 102.5 C 60.101562 101.300781 60.101562 99.398438 61.300781 98.300781 C 62.5 97.101562 64.398438 97.101562 65.5 98.300781 L 75.5 108.300781 C 76.699219 109.5 76.699219 111.398438 75.5 112.5 C 74.898438 113.199219 74.101562 113.398438 73.398438 113.398438 Z M 73.398438 113.398438 "/>
<path style=" stroke:none;fill-rule:nonzero;fill:rgb(44.313725%,76.078431%,100%);fill-opacity:1;" d="M 68.199219 42.300781 C 67.699219 40.699219 66 39.800781 64.5 40.300781 C 62.898438 40.800781 62 42.5 62.5 44 C 63.398438 46.898438 63.601562 51.898438 63 57.5 C 62.800781 59.101562 64 60.601562 65.699219 60.800781 C 65.800781 60.800781 65.898438 60.800781 66 60.800781 C 67.5 60.800781 68.800781 59.601562 69 58.101562 C 69.398438 54.398438 69.800781 47.300781 68.199219 42.300781 Z M 66 35.398438 C 68.5 28.601562 68.101562 21.300781 65.101562 14.800781 C 62.101562 8.300781 56.601562 3.300781 49.898438 0.800781 C 48.300781 0.199219 46.601562 1 46 2.601562 C 43.5 9.398438 43.898438 16.699219 46.898438 23.199219 C 49.898438 29.699219 55.398438 34.699219 62.101562 37.199219 C 62.398438 37.300781 62.800781 37.398438 63.101562 37.398438 C 64.398438 37.398438 65.5 36.601562 66 35.398438 Z M 44.601562 36.101562 C 40.199219 35.699219 35.898438 37.101562 32.601562 39.898438 C 31.300781 41 31.199219 42.898438 32.199219 44.101562 C 35 47.5 39 49.5 43.398438 49.898438 C 43.898438 49.898438 44.398438 50 44.898438 50 C 48.800781 50 52.5 48.699219 55.5 46.101562 C 56.800781 45 56.898438 43.101562 55.898438 41.898438 C 53 38.5 49 36.5 44.601562 36.101562 Z M 44.601562 36.101562 "/>
<path style=" stroke:none;fill-rule:nonzero;fill:rgb(100%,100%,100%);fill-opacity:1;" d="M 75.898438 34.699219 C 75.398438 34.601562 75 34.101562 75.101562 33.601562 C 77.5 20 90.398438 11 104 13.398438 C 104.5 13.5 104.898438 14 104.800781 14.5 C 102.398438 28 89.5 37.101562 75.898438 34.699219 Z M 75.898438 34.699219 "/>
<path style=" stroke:none;fill-rule:nonzero;fill:rgb(44.313725%,76.078431%,100%);fill-opacity:1;" d="M 80.300781 38.101562 C 78.699219 38.101562 77 38 75.398438 37.699219 C 73.300781 37.300781 71.800781 35.300781 72.199219 33.101562 C 73.5 25.699219 77.601562 19.300781 83.699219 15.101562 C 89.800781 10.800781 97.199219 9.199219 104.601562 10.5 C 106.699219 10.898438 108.199219 12.898438 107.800781 15.101562 C 106.5 22.5 102.398438 28.898438 96.300781 33.101562 C 91.5 36.300781 86 38.101562 80.300781 38.101562 Z M 78.601562 32 C 83.699219 32.398438 88.699219 31 92.898438 28.101562 C 97.101562 25.199219 100.101562 20.898438 101.398438 16 C 96.300781 15.601562 91.300781 17 87.101562 19.898438 C 82.898438 22.898438 80 27.101562 78.601562 32 Z M 78.601562 32 "/>
</g>
</svg>
