<svg xmlns="http://www.w3.org/2000/svg" viewBox="0 0 80 80" width="80px" height="80px"><path fill="#ffd7bd" d="M9 14H5c-.55 0-1-.45-1-1v0c0-.55.45-1 1-1h4c.55 0 1 .45 1 1v0C10 13.55 9.55 14 9 14zM19 14h-4c-.55 0-1-.45-1-1v0c0-.55.45-1 1-1h4c.55 0 1 .45 1 1v0C20 13.55 19.55 14 19 14zM29 14h-4c-.55 0-1-.45-1-1v0c0-.55.45-1 1-1h4c.55 0 1 .45 1 1v0C30 13.55 29.55 14 29 14zM39 14h-4c-.55 0-1-.45-1-1v0c0-.55.45-1 1-1h4c.55 0 1 .45 1 1v0C40 13.55 39.55 14 39 14zM49 14h-4c-.55 0-1-.45-1-1v0c0-.55.45-1 1-1h4c.55 0 1 .45 1 1v0C50 13.55 49.55 14 49 14zM15 20h-4c-.55 0-1-.45-1-1v0c0-.55.45-1 1-1h4c.55 0 1 .45 1 1v0C16 19.55 15.55 20 15 20zM25 20h-4c-.55 0-1-.45-1-1v0c0-.55.45-1 1-1h4c.55 0 1 .45 1 1v0C26 19.55 25.55 20 25 20zM35 20h-4c-.55 0-1-.45-1-1v0c0-.55.45-1 1-1h4c.55 0 1 .45 1 1v0C36 19.55 35.55 20 35 20zM45 20h-4c-.55 0-1-.45-1-1v0c0-.55.45-1 1-1h4c.55 0 1 .45 1 1v0C46 19.55 45.55 20 45 20zM55 20h-4c-.55 0-1-.45-1-1v0c0-.55.45-1 1-1h4c.55 0 1 .45 1 1v0C56 19.55 55.55 20 55 20zM59 14h-4c-.55 0-1-.45-1-1v0c0-.55.45-1 1-1h4c.55 0 1 .45 1 1v0C60 13.55 59.55 14 59 14zM69 14h-4c-.55 0-1-.45-1-1v0c0-.55.45-1 1-1h4c.55 0 1 .45 1 1v0C70 13.55 69.55 14 69 14zM65 20h-4c-.55 0-1-.45-1-1v0c0-.55.45-1 1-1h4c.55 0 1 .45 1 1v0C66 19.55 65.55 20 65 20zM75 20h-4c-.55 0-1-.45-1-1v0c0-.55.45-1 1-1h4c.55 0 1 .45 1 1v0C76 19.55 75.55 20 75 20z"/><path fill="#e0ac89" d="M9 26H5c-.55 0-1-.45-1-1v0c0-.55.45-1 1-1h4c.55 0 1 .45 1 1v0C10 25.55 9.55 26 9 26zM19 26h-4c-.55 0-1-.45-1-1v0c0-.55.45-1 1-1h4c.55 0 1 .45 1 1v0C20 25.55 19.55 26 19 26zM29 26h-4c-.55 0-1-.45-1-1v0c0-.55.45-1 1-1h4c.55 0 1 .45 1 1v0C30 25.55 29.55 26 29 26zM39 26h-4c-.55 0-1-.45-1-1v0c0-.55.45-1 1-1h4c.55 0 1 .45 1 1v0C40 25.55 39.55 26 39 26zM49 26h-4c-.55 0-1-.45-1-1v0c0-.55.45-1 1-1h4c.55 0 1 .45 1 1v0C50 25.55 49.55 26 49 26zM15 32h-4c-.55 0-1-.45-1-1v0c0-.55.45-1 1-1h4c.55 0 1 .45 1 1v0C16 31.55 15.55 32 15 32zM25 32h-4c-.55 0-1-.45-1-1v0c0-.55.45-1 1-1h4c.55 0 1 .45 1 1v0C26 31.55 25.55 32 25 32zM35 32h-4c-.55 0-1-.45-1-1v0c0-.55.45-1 1-1h4c.55 0 1 .45 1 1v0C36 31.55 35.55 32 35 32zM45 32h-4c-.55 0-1-.45-1-1v0c0-.55.45-1 1-1h4c.55 0 1 .45 1 1v0C46 31.55 45.55 32 45 32zM55 32h-4c-.55 0-1-.45-1-1v0c0-.55.45-1 1-1h4c.55 0 1 .45 1 1v0C56 31.55 55.55 32 55 32zM59 26h-4c-.55 0-1-.45-1-1v0c0-.55.45-1 1-1h4c.55 0 1 .45 1 1v0C60 25.55 59.55 26 59 26zM69 26h-4c-.55 0-1-.45-1-1v0c0-.55.45-1 1-1h4c.55 0 1 .45 1 1v0C70 25.55 69.55 26 69 26zM65 32h-4c-.55 0-1-.45-1-1v0c0-.55.45-1 1-1h4c.55 0 1 .45 1 1v0C66 31.55 65.55 32 65 32zM75 32h-4c-.55 0-1-.45-1-1v0c0-.55.45-1 1-1h4c.55 0 1 .45 1 1v0C76 31.55 75.55 32 75 32z"/><path fill="#b08159" d="M9 38H5c-.55 0-1-.45-1-1l0 0c0-.55.45-1 1-1h4c.55 0 1 .45 1 1l0 0C10 37.55 9.55 38 9 38zM19 38h-4c-.55 0-1-.45-1-1l0 0c0-.55.45-1 1-1h4c.55 0 1 .45 1 1l0 0C20 37.55 19.55 38 19 38zM29 38h-4c-.55 0-1-.45-1-1l0 0c0-.55.45-1 1-1h4c.55 0 1 .45 1 1l0 0C30 37.55 29.55 38 29 38zM39 38h-4c-.55 0-1-.45-1-1l0 0c0-.55.45-1 1-1h4c.55 0 1 .45 1 1l0 0C40 37.55 39.55 38 39 38zM49 38h-4c-.55 0-1-.45-1-1l0 0c0-.55.45-1 1-1h4c.55 0 1 .45 1 1l0 0C50 37.55 49.55 38 49 38zM15 44h-4c-.55 0-1-.45-1-1l0 0c0-.55.45-1 1-1h4c.55 0 1 .45 1 1l0 0C16 43.55 15.55 44 15 44zM25 44h-4c-.55 0-1-.45-1-1l0 0c0-.55.45-1 1-1h4c.55 0 1 .45 1 1l0 0C26 43.55 25.55 44 25 44zM35 44h-4c-.55 0-1-.45-1-1l0 0c0-.55.45-1 1-1h4c.55 0 1 .45 1 1l0 0C36 43.55 35.55 44 35 44zM45 44h-4c-.55 0-1-.45-1-1l0 0c0-.55.45-1 1-1h4c.55 0 1 .45 1 1l0 0C46 43.55 45.55 44 45 44zM55 44h-4c-.55 0-1-.45-1-1l0 0c0-.55.45-1 1-1h4c.55 0 1 .45 1 1l0 0C56 43.55 55.55 44 55 44zM59 38h-4c-.55 0-1-.45-1-1l0 0c0-.55.45-1 1-1h4c.55 0 1 .45 1 1l0 0C60 37.55 59.55 38 59 38zM69 38h-4c-.55 0-1-.45-1-1l0 0c0-.55.45-1 1-1h4c.55 0 1 .45 1 1l0 0C70 37.55 69.55 38 69 38zM65 44h-4c-.55 0-1-.45-1-1l0 0c0-.55.45-1 1-1h4c.55 0 1 .45 1 1l0 0C66 43.55 65.55 44 65 44zM75 44h-4c-.55 0-1-.45-1-1l0 0c0-.55.45-1 1-1h4c.55 0 1 .45 1 1l0 0C76 43.55 75.55 44 75 44zM9 50H5c-.55 0-1-.45-1-1l0 0c0-.55.45-1 1-1h4c.55 0 1 .45 1 1l0 0C10 49.55 9.55 50 9 50zM19 50h-4c-.55 0-1-.45-1-1l0 0c0-.55.45-1 1-1h4c.55 0 1 .45 1 1l0 0C20 49.55 19.55 50 19 50zM29 50h-4c-.55 0-1-.45-1-1l0 0c0-.55.45-1 1-1h4c.55 0 1 .45 1 1l0 0C30 49.55 29.55 50 29 50zM39 50h-4c-.55 0-1-.45-1-1l0 0c0-.55.45-1 1-1h4c.55 0 1 .45 1 1l0 0C40 49.55 39.55 50 39 50zM49 50h-4c-.55 0-1-.45-1-1l0 0c0-.55.45-1 1-1h4c.55 0 1 .45 1 1l0 0C50 49.55 49.55 50 49 50z"/><path fill="#704e34" d="M15 56h-4c-.55 0-1-.45-1-1l0 0c0-.55.45-1 1-1h4c.55 0 1 .45 1 1l0 0C16 55.55 15.55 56 15 56zM25 56h-4c-.55 0-1-.45-1-1l0 0c0-.55.45-1 1-1h4c.55 0 1 .45 1 1l0 0C26 55.55 25.55 56 25 56zM35 56h-4c-.55 0-1-.45-1-1l0 0c0-.55.45-1 1-1h4c.55 0 1 .45 1 1l0 0C36 55.55 35.55 56 35 56zM45 56h-4c-.55 0-1-.45-1-1l0 0c0-.55.45-1 1-1h4c.55 0 1 .45 1 1l0 0C46 55.55 45.55 56 45 56zM55 56h-4c-.55 0-1-.45-1-1l0 0c0-.55.45-1 1-1h4c.55 0 1 .45 1 1l0 0C56 55.55 55.55 56 55 56z"/><path fill="#b08159" d="M59 50h-4c-.55 0-1-.45-1-1l0 0c0-.55.45-1 1-1h4c.55 0 1 .45 1 1l0 0C60 49.55 59.55 50 59 50zM69 50h-4c-.55 0-1-.45-1-1l0 0c0-.55.45-1 1-1h4c.55 0 1 .45 1 1l0 0C70 49.55 69.55 50 69 50z"/><path fill="#704e34" d="M65 56h-4c-.55 0-1-.45-1-1l0 0c0-.55.45-1 1-1h4c.55 0 1 .45 1 1l0 0C66 55.55 65.55 56 65 56zM75 56h-4c-.55 0-1-.45-1-1l0 0c0-.55.45-1 1-1h4c.55 0 1 .45 1 1l0 0C76 55.55 75.55 56 75 56zM9 62H5c-.55 0-1-.45-1-1l0 0c0-.55.45-1 1-1h4c.55 0 1 .45 1 1l0 0C10 61.55 9.55 62 9 62zM19 62h-4c-.55 0-1-.45-1-1l0 0c0-.55.45-1 1-1h4c.55 0 1 .45 1 1l0 0C20 61.55 19.55 62 19 62zM29 62h-4c-.55 0-1-.45-1-1l0 0c0-.55.45-1 1-1h4c.55 0 1 .45 1 1l0 0C30 61.55 29.55 62 29 62zM39 62h-4c-.55 0-1-.45-1-1l0 0c0-.55.45-1 1-1h4c.55 0 1 .45 1 1l0 0C40 61.55 39.55 62 39 62zM49 62h-4c-.55 0-1-.45-1-1l0 0c0-.55.45-1 1-1h4c.55 0 1 .45 1 1l0 0C50 61.55 49.55 62 49 62zM15 68h-4c-.55 0-1-.45-1-1l0 0c0-.55.45-1 1-1h4c.55 0 1 .45 1 1l0 0C16 67.55 15.55 68 15 68zM25 68h-4c-.55 0-1-.45-1-1l0 0c0-.55.45-1 1-1h4c.55 0 1 .45 1 1l0 0C26 67.55 25.55 68 25 68zM35 68h-4c-.55 0-1-.45-1-1l0 0c0-.55.45-1 1-1h4c.55 0 1 .45 1 1l0 0C36 67.55 35.55 68 35 68zM45 68h-4c-.55 0-1-.45-1-1l0 0c0-.55.45-1 1-1h4c.55 0 1 .45 1 1l0 0C46 67.55 45.55 68 45 68zM55 68h-4c-.55 0-1-.45-1-1l0 0c0-.55.45-1 1-1h4c.55 0 1 .45 1 1l0 0C56 67.55 55.55 68 55 68zM59 62h-4c-.55 0-1-.45-1-1l0 0c0-.55.45-1 1-1h4c.55 0 1 .45 1 1l0 0C60 61.55 59.55 62 59 62zM69 62h-4c-.55 0-1-.45-1-1l0 0c0-.55.45-1 1-1h4c.55 0 1 .45 1 1l0 0C70 61.55 69.55 62 69 62zM65 68h-4c-.55 0-1-.45-1-1l0 0c0-.55.45-1 1-1h4c.55 0 1 .45 1 1l0 0C66 67.55 65.55 68 65 68zM75 68h-4c-.55 0-1-.45-1-1l0 0c0-.55.45-1 1-1h4c.55 0 1 .45 1 1l0 0C76 67.55 75.55 68 75 68z"/></svg>