<svg xmlns="http://www.w3.org/2000/svg" viewBox="0 0 80 80" width="30px" height="30px"><path fill="#c2e8ff" d="M15,39.5c-5.79,0-10.5-4.661-10.5-10.391c0-5.351,8.464-20.531,10.497-24.101 C17.024,8.607,25.5,23.965,25.5,29.109C25.5,34.839,20.79,39.5,15,39.5z"/><path fill="#8bb7f0" d="M14.995,6.018C18.425,12.149,25,24.793,25,29.109C25,34.563,20.514,39,15,39 c-5.514,0-10-4.437-10-9.891C5,24.618,11.564,12.085,14.995,6.018 M15,4C15,4,4,22.852,4,29.109C4,35.124,8.925,40,15,40 s11-4.876,11-10.891S15,4,15,4L15,4z"/><path fill="#c2e8ff" d="M39,75.5c-5.79,0-10.5-4.661-10.5-10.391c0-5.351,8.464-20.531,10.497-24.101 C41.024,44.607,49.5,59.965,49.5,65.109C49.5,70.839,44.79,75.5,39,75.5z"/><path fill="#8bb7f0" d="M38.995,42.018C42.425,48.149,49,60.793,49,65.109C49,70.563,44.514,75,39,75s-10-4.437-10-9.891 C29,60.618,35.564,48.085,38.995,42.018 M39,40c0,0-11,18.852-11,25.109C28,71.124,32.925,76,39,76s11-4.876,11-10.891S39,40,39,40 L39,40z"/><g><path fill="#c2e8ff" d="M65,45.5c-5.79,0-10.5-4.661-10.5-10.391c0-5.351,8.464-20.531,10.497-24.101 C67.024,14.607,75.5,29.965,75.5,35.109C75.5,40.839,70.79,45.5,65,45.5z"/><path fill="#8bb7f0" d="M64.995,12.018C68.425,18.149,75,30.793,75,35.109C75,40.563,70.514,45,65,45s-10-4.437-10-9.891 C55,30.618,61.564,18.085,64.995,12.018 M65,10c0,0-11,18.852-11,25.109C54,41.124,58.925,46,65,46s11-4.876,11-10.891S65,10,65,10 L65,10z"/></g></svg>